<?xml version="1.0" encoding="utf-8"?>
<svg viewBox="0 0 500 500" xmlns="http://www.w3.org/2000/svg">
  <g transform="matrix(6.306054, 0, 0, 6.306054, 119.955162, 127.802696)">
    <path d="M10.75 8.25C10.75 8.80228 10.3023 9.25 9.75 9.25C9.19772 9.25 8.75 8.80228 8.75 8.25C8.75 7.69772 9.19772 7.25 9.75 7.25C10.3023 7.25 10.75 7.69772 10.75 8.25Z" fill="#212121"/>
    <path d="M13.5 8.25C13.5 8.80228 13.0523 9.25 12.5 9.25C11.9477 9.25 11.5 8.80228 11.5 8.25C11.5 7.69772 11.9477 7.25 12.5 7.25C13.0523 7.25 13.5 7.69772 13.5 8.25Z" fill="#212121"/>
    <path d="M16.5 8.25C16.5 8.80228 16.0523 9.25 15.5 9.25C14.9477 9.25 14.5 8.80228 14.5 8.25C14.5 7.69772 14.9477 7.25 15.5 7.25C16.0523 7.25 16.5 7.69772 16.5 8.25Z" fill="#212121"/>
    <path d="M19.5 8.25C19.5 8.80228 19.0523 9.25 18.5 9.25C17.9477 9.25 17.5 8.80228 17.5 8.25C17.5 7.69772 17.9477 7.25 18.5 7.25C19.0523 7.25 19.5 7.69772 19.5 8.25Z" fill="#212121"/>
    <path d="M9.75 16.75C10.3023 16.75 10.75 16.3023 10.75 15.75C10.75 15.1977 10.3023 14.75 9.75 14.75C9.19772 14.75 8.75 15.1977 8.75 15.75C8.75 16.3023 9.19772 16.75 9.75 16.75Z" fill="#212121"/>
    <path d="M12.5 16.75C13.0523 16.75 13.5 16.3023 13.5 15.75C13.5 15.1977 13.0523 14.75 12.5 14.75C11.9477 14.75 11.5 15.1977 11.5 15.75C11.5 16.3023 11.9477 16.75 12.5 16.75Z" fill="#212121"/>
    <path d="M15.5 16.75C16.0523 16.75 16.5 16.3023 16.5 15.75C16.5 15.1977 16.0523 14.75 15.5 14.75C14.9477 14.75 14.5 15.1977 14.5 15.75C14.5 16.3023 14.9477 16.75 15.5 16.75Z" fill="#212121"/>
    <path d="M18.5 16.75C19.0523 16.75 19.5 16.3023 19.5 15.75C19.5 15.1977 19.0523 14.75 18.5 14.75C17.9477 14.75 17.5 15.1977 17.5 15.75C17.5 16.3023 17.9477 16.75 18.5 16.75Z" fill="#212121"/>
    <path d="M5 4C3.34315 4 2 5.34315 2 7V17C2 18.6569 3.34315 20 5 20H19C20.6569 20 22 18.6569 22 17V7C22 5.34315 20.6569 4 19 4H5ZM19 5.5C19.8284 5.5 20.5 6.17157 20.5 7V11.25H7.5V5.5H19ZM20.5 12.75V17C20.5 17.8284 19.8284 18.5 19 18.5H7.5V12.75H20.5ZM6 11.25H3.5V7C3.5 6.17157 4.17157 5.5 5 5.5H6V11.25ZM3.5 12.75H6V18.5H5C4.17157 18.5 3.5 17.8284 3.5 17V12.75Z" fill="#212121"/>
  </g>
  <g transform="matrix(6.306054, 0, 0, 6.306054, 325.67266, 93.60987)">
    <path d="M2.75061 16.4995H21.2494C21.6636 16.4995 21.9994 16.8353 21.9994 17.2495C21.9994 17.6292 21.7172 17.943 21.3511 17.9927L21.2494 17.9995H2.75061C2.3364 17.9995 2.00061 17.6637 2.00061 17.2495C2.00061 16.8698 2.28276 16.556 2.64884 16.5063L2.75061 16.4995H21.2494H2.75061ZM18.25 5C19.2165 5 20 5.7835 20 6.75V14.2503C20 15.2168 19.2165 16.0003 18.25 16.0003H5.74998C4.78349 16.0003 3.99998 15.2168 3.99998 14.2503V6.75C3.99998 5.7835 4.78349 5 5.74998 5H18.25ZM18.25 6.5H5.74998C5.61191 6.5 5.49998 6.61193 5.49998 6.75V14.2503C5.49998 14.3884 5.61191 14.5003 5.74998 14.5003H18.25C18.3881 14.5003 18.5 14.3884 18.5 14.2503V6.75C18.5 6.61193 18.3881 6.5 18.25 6.5Z" fill="#212121"/>
  </g>
  <g transform="matrix(7.567265, 0, 0, 7.567265, 196.748888, 1.681614)">
    <path d="M10.9776 6H15C15.5523 6 16 6.44772 16 7V12C16 12.5523 15.5523 13 15 13H5C4.44772 13 4 12.5523 4 12V10.793C3.65136 10.6944 3.31679 10.5622 3 10.4003V12C3 13.1046 3.89543 14 5 14H15C16.1046 14 17 13.1046 17 12V7C17 5.89543 16.1046 5 15 5H10.9776C10.9924 5.16468 11 5.33146 11 5.5C11 5.66854 10.9924 5.83532 10.9776 6ZM2.5 15C2.22386 15 2 15.2239 2 15.5C2 15.7761 2.22386 16 2.5 16H17.5C17.7761 16 18 15.7761 18 15.5C18 15.2239 17.7761 15 17.5 15H2.5ZM5.5 10C7.98528 10 10 7.98528 10 5.5C10 3.01472 7.98528 1 5.5 1C3.01472 1 1 3.01472 1 5.5C1 7.98528 3.01472 10 5.5 10ZM7.35355 3.64645C7.54882 3.84171 7.54882 4.15829 7.35355 4.35355L6.20711 5.5L7.35355 6.64645C7.54882 6.84171 7.54882 7.15829 7.35355 7.35355C7.15829 7.54882 6.84171 7.54882 6.64645 7.35355L5.5 6.20711L4.35355 7.35355C4.15829 7.54882 3.84171 7.54882 3.64645 7.35355C3.45118 7.15829 3.45118 6.84171 3.64645 6.64645L4.79289 5.5L3.64645 4.35355C3.45118 4.15829 3.45118 3.84171 3.64645 3.64645C3.84171 3.45118 4.15829 3.45118 4.35355 3.64645L5.5 4.79289L6.64645 3.64645C6.84171 3.45118 7.15829 3.45118 7.35355 3.64645Z" fill="#212121"/>
  </g>
  <g transform="matrix(6.306054, 0, 0, 6.306054, 53.251123, 280.269071)">
    <path d="M0 0h24v24H0zm0 0h24v24H0z" fill="none"/>
    <path d="M10 6.35V4.26c-.8.21-1.55.54-2.23.96l1.46 1.46c.25-.12.5-.24.77-.33zm-7.14-.94l2.36 2.36C4.45 8.99 4 10.44 4 12c0 2.21.91 4.2 2.36 5.64L4 20h6v-6l-2.24 2.24C6.68 15.15 6 13.66 6 12c0-1 .25-1.94.68-2.77l8.08 8.08c-.25.13-.5.25-.77.34v2.09c.8-.21 1.55-.54 2.23-.96l2.36 2.36 1.27-1.27L4.14 4.14 2.86 5.41zM20 4h-6v6l2.24-2.24C17.32 8.85 18 10.34 18 12c0 1-.25 1.94-.68 2.77l1.46 1.46C19.55 15.01 20 13.56 20 12c0-2.21-.91-4.2-2.36-5.64L20 4z"/>
  </g>
  <g transform="matrix(6.306054, 0, 0, 6.306054, 274.103151, 283.071762)">
    <path d="M12 4V1L8 5l4 4V6c3.31 0 6 2.69 6 6 0 1.01-.25 1.97-.7 2.8l1.46 1.46C19.54 15.03 20 13.57 20 12c0-4.42-3.58-8-8-8zm0 14c-3.31 0-6-2.69-6-6 0-1.01.25-1.97.7-2.8L5.24 7.74C4.46 8.97 4 10.43 4 12c0 4.42 3.58 8 8 8v3l4-4-4-4v3z"/>
  </g>
  <g transform="matrix(6.306054, 0, 0, 6.306054, 337.443961, -15.13453)">
    <g>
      <path d="M19.14,12.94c0.04-0.3,0.06-0.61,0.06-0.94c0-0.32-0.02-0.64-0.07-0.94l2.03-1.58c0.18-0.14,0.23-0.41,0.12-0.61 l-1.92-3.32c-0.12-0.22-0.37-0.29-0.59-0.22l-2.39,0.96c-0.5-0.38-1.03-0.7-1.62-0.94L14.4,2.81c-0.04-0.24-0.24-0.41-0.48-0.41 h-3.84c-0.24,0-0.43,0.17-0.47,0.41L9.25,5.35C8.66,5.59,8.12,5.92,7.63,6.29L5.24,5.33c-0.22-0.08-0.47,0-0.59,0.22L2.74,8.87 C2.62,9.08,2.66,9.34,2.86,9.48l2.03,1.58C4.84,11.36,4.8,11.69,4.8,12s0.02,0.64,0.07,0.94l-2.03,1.58 c-0.18,0.14-0.23,0.41-0.12,0.61l1.92,3.32c0.12,0.22,0.37,0.29,0.59,0.22l2.39-0.96c0.5,0.38,1.03,0.7,1.62,0.94l0.36,2.54 c0.05,0.24,0.24,0.41,0.48,0.41h3.84c0.24,0,0.44-0.17,0.47-0.41l0.36-2.54c0.59-0.24,1.13-0.56,1.62-0.94l2.39,0.96 c0.22,0.08,0.47,0,0.59-0.22l1.92-3.32c0.12-0.22,0.07-0.47-0.12-0.61L19.14,12.94z M12,15.6c-1.98,0-3.6-1.62-3.6-3.6 s1.62-3.6,3.6-3.6s3.6,1.62,3.6,3.6S13.98,15.6,12,15.6z"/>
    </g>
  </g>
  <g transform="matrix(6.306054, 0, 0, 6.306054, 360.426025, 350.336339)">
    <path d="M15.55 5.55L11 1v3.07C7.06 4.56 4 7.92 4 12s3.05 7.44 7 7.93v-2.02c-2.84-.48-5-2.94-5-5.91s2.16-5.43 5-5.91V10l4.55-4.45zM19.93 11c-.17-1.39-.72-2.73-1.62-3.89l-1.42 1.42c.54.75.88 1.6 1.02 2.47h2.02zM13 17.9v2.02c1.39-.17 2.74-.71 3.9-1.61l-1.44-1.44c-.75.54-1.59.89-2.46 1.03zm3.89-2.42l1.42 1.41c.9-1.16 1.45-2.5 1.62-3.89h-2.02c-.14.87-.48 1.72-1.02 2.48z"/>
  </g>
  <g transform="matrix(6.306054, 0, 0, 6.306054, 355.94172, 196.748888)">
    <path d="M13 3h-2v10h2V3zm4.83 2.17l-1.42 1.42C17.99 7.86 19 9.81 19 12c0 3.87-3.13 7-7 7s-7-3.13-7-7c0-2.19 1.01-4.14 2.58-5.42L6.17 5.17C4.23 6.82 3 9.26 3 12c0 4.97 4.03 9 9 9s9-4.03 9-9c0-2.74-1.23-5.18-3.17-6.83z"/>
  </g>
</svg>