<?xml version="1.0" encoding="utf-8"?>
<svg viewBox="0 0 119.955 118.834" xmlns="http://www.w3.org/2000/svg">
  <g transform="matrix(6.306054, 0, 0, 6.306054, -9.529148, -21.529148)">
    <path d="M 20.031 5.347 C 20.324 5.054 20.324 4.579 20.031 4.286 C 19.738 3.993 19.264 3.993 18.971 4.286 L 16.959 6.298 C 15.299 5.119 12.983 5.274 11.496 6.761 L 10.428 7.829 C 9.744 8.513 9.744 9.621 10.428 10.304 L 14.014 13.89 C 14.697 14.573 15.805 14.573 16.488 13.89 L 17.556 12.822 C 19.044 11.334 19.198 9.018 18.019 7.359 L 20.031 5.347 Z M 16.446 7.822 L 16.468 7.845 L 16.471 7.847 L 16.473 7.849 L 16.496 7.872 C 17.57 8.946 17.57 10.687 16.496 11.761 L 15.428 12.829 C 15.33 12.927 15.172 12.927 15.074 12.829 L 11.488 9.243 C 11.391 9.146 11.391 8.987 11.488 8.89 L 12.556 7.822 C 13.63 6.748 15.372 6.748 16.446 7.822 Z" fill="#212121"/>
    <path d="M10.7803 11.2803C11.0732 10.9874 11.0732 10.5126 10.7803 10.2197C10.4874 9.92678 10.0126 9.92678 9.71967 10.2197L8.00001 11.9393L7.53035 11.4697C7.23746 11.1768 6.76258 11.1768 6.46969 11.4697L4.69456 13.2448C3.20701 14.7324 3.0527 17.0483 4.23163 18.7077L2.21967 20.7197C1.92678 21.0126 1.92678 21.4874 2.21967 21.7803C2.51256 22.0732 2.98744 22.0732 3.28033 21.7803L5.29229 19.7684C6.95171 20.9473 9.26766 20.793 10.7552 19.3055L12.5303 17.5303C12.8232 17.2374 12.8232 16.7626 12.5303 16.4697L12.0607 16L13.7803 14.2803C14.0732 13.9874 14.0732 13.5126 13.7803 13.2197C13.4874 12.9268 13.0126 12.9268 12.7197 13.2197L11 14.9393L9.06067 13L10.7803 11.2803ZM7.46631 13.527L7.46967 13.5303L7.47305 13.5337L10.4664 16.527L10.4697 16.5303L10.473 16.5336L10.9394 17L9.69456 18.2448C8.62062 19.3187 6.87942 19.3187 5.80548 18.2448L5.75522 18.1945C4.68128 17.1206 4.68128 15.3794 5.75522 14.3055L7.00002 13.0607L7.46631 13.527Z" fill="#212121"/>
  </g>
</svg>